# This file uses meters as units for non-parametric coordinates.

mtllib DrivingMiniExt.mtl
g default
v -38193.711809 1819.173096 -24458.808022
v -43769.086809 1629.895508 -24458.808022
v -37505.289934 879.138611 -15379.272865
v -43769.086809 835.276489 -15379.272865
v -37505.289934 97.529602 -11492.294350
v -43769.086809 310.356842 -11492.294350
v -37505.289934 97.529602 -7605.321694
v -43769.086809 97.529602 -7605.321694
v -37505.289934 97.529602 7942.581138
v -43769.086809 97.529602 7942.581138
v -37505.289934 97.529602 11829.562095
v -43769.086809 310.356842 11829.562095
v -37505.289934 879.138611 15716.529869
v -43769.086809 835.276489 15716.529869
v -37445.258684 1843.584229 24796.070885
v -43769.086809 1629.895874 24796.070885
v -37505.289934 -193.856201 -7605.321694
v -43769.086809 -193.856201 -7605.321694
v -37505.289934 -193.856201 7942.581138
v -43769.086809 -193.856201 7942.581138
v -43731.071184 1973.259521 -28273.829506
v -43731.086809 1973.261963 28611.107994
v -37866.383684 1463.235229 -28273.829506
v -36430.336809 1511.475586 28611.107994
v 35608.522566 1819.173096 24796.080650
v 41183.913191 1790.371338 24796.080650
v 34920.100691 879.138611 15716.543541
v 41183.913191 995.752075 15716.543541
v 34920.100691 97.529602 11829.567955
v 41183.913191 470.832611 11829.567955
v 34920.100691 97.529602 7942.594810
v 41183.913191 97.529602 7942.594810
v 34920.100691 97.529602 -7605.302162
v 41183.913191 97.529602 -7605.302162
v 34920.100691 97.529602 -11492.285561
v 41183.913191 470.832611 -11492.285561
v 34920.100691 879.138611 -15379.253334
v 41183.913191 995.752197 -15379.253334
v 34860.100691 1843.584229 -24458.790444
v 41183.913191 1790.371582 -24458.790444
v 34920.100691 -193.856201 7942.594810
v 41183.913191 -193.856201 7942.594810
v 34920.100691 -193.856201 -7605.302162
v 41183.913191 -193.856201 -7605.302162
v 41175.553816 1883.673828 28611.106041
v 41175.569441 1883.676270 -28273.829506
v 35281.178816 1463.235229 28611.106041
v 33845.147566 1511.475586 -28273.829506
vt 0.073052 0.875928
vt 0.180957 0.893183
vt 0.184581 0.993770
vt 0.066713 0.985193
vt 0.004325 0.872371
vt 0.006117 0.986187
vt 0.614781 0.142416
vt 0.527350 0.145579
vt 0.528395 0.027161
vt 0.611829 0.028646
vt 0.889512 0.023880
vt 0.876146 0.142056
vt 0.633445 0.141600
vt 0.627946 0.027968
vt 0.987695 0.146365
vt 0.895982 0.143186
vt 0.906031 0.025383
vt 0.989314 0.026146
vt 0.327617 0.121734
vt 0.256449 0.127123
vt 0.253453 0.012112
vt 0.318769 0.010091
vt 0.437772 0.126181
vt 0.443929 0.015591
vt 0.901064 0.864745
vt 0.882395 0.865904
vt 0.249158 0.886178
vt 0.246139 0.995350
vt 0.249158 0.149205
vt 0.182730 0.124651
vt 0.506159 0.015903
vt 0.506874 0.150723
vt 0.323718 0.877532
vt 0.435947 0.894680
vt 0.440062 0.995217
vt 0.317546 0.986840
vt 0.252221 0.873926
vt 0.254514 0.987892
vt 0.989311 0.861381
vt 0.989134 0.979756
vt 0.905950 0.978784
vt 0.628022 0.985438
vt 0.641788 0.866563
vt 0.889518 0.979654
vt 0.529697 0.861802
vt 0.621881 0.865175
vt 0.611090 0.983844
vt 0.527090 0.982818
vt 0.076779 0.120118
vt 0.008341 0.125561
vt 0.005888 0.010424
vt 0.068629 0.008462
vt 0.188979 0.014136
vt 0.506872 0.887669
vt 0.503895 0.997230
vt 0.248644 0.013994
vn -0.000722 0.991478 0.130276
vn -0.001828 0.994619 0.103587
vn -0.019598 0.995207 0.095811
vn -0.009272 0.992989 0.117845
vn 0.001204 0.995007 0.099800
vn -0.000722 0.991478 0.130276
vn -0.009272 0.992989 0.117845
vn 0.015158 0.995124 0.097456
vn 0.001352 0.999997 0.002179
vn 0.001204 0.995007 0.099800
vn 0.015158 0.995124 0.097456
vn 0.016980 0.999481 0.027363
vn 0.000000 1.000000 0.000000
vn 0.000000 1.000000 0.000000
vn 0.000000 1.000000 0.000000
vn 0.000000 1.000000 0.000000
vn 0.001204 0.995007 -0.099800
vn 0.001352 0.999997 -0.002179
vn 0.016980 0.999481 -0.027363
vn 0.015159 0.995124 -0.097456
vn -0.000719 0.991336 -0.131346
vn 0.001204 0.995007 -0.099800
vn 0.015159 0.995124 -0.097456
vn -0.010236 0.993045 -0.117293
vn -0.001443 0.994609 -0.103688
vn -0.000719 0.991336 -0.131346
vn -0.010236 0.993045 -0.117293
vn -0.020361 0.995141 -0.096332
vn 0.000000 0.000000 1.000000
vn 0.000000 0.000000 1.000000
vn 0.000000 0.000000 1.000000
vn 0.000000 0.000000 1.000000
vn 0.000000 0.000000 -1.000000
vn 0.000000 0.000000 -1.000000
vn 0.000000 0.000000 -1.000000
vn 0.000000 0.000000 -1.000000
vn 0.000000 0.000000 -1.000000
vn 0.000000 0.000000 -1.000000
vn 0.000000 0.000000 -1.000000
vn 0.000000 0.000000 -1.000000
vn 0.001911 0.996611 -0.082236
vn 0.001278 0.996447 -0.084214
vn 0.028026 0.999607 -0.000305
vn 0.028026 0.999607 -0.000305
vn -0.001739 0.996256 -0.086433
vn 0.001278 0.996447 -0.084214
vn 0.001911 0.996611 -0.082236
vn -0.003535 0.996659 -0.081602
vn 0.002844 0.996996 0.077402
vn 0.018206 0.999826 -0.003988
vn 0.018206 0.999826 -0.003988
vn 0.001457 0.996404 0.084718
vn -0.001125 0.991482 -0.130237
vn -0.000480 0.994630 -0.103499
vn -0.007383 0.995468 -0.094813
vn -0.017149 0.992977 -0.117059
vn -0.002713 0.994924 -0.100597
vn -0.001125 0.991482 -0.130237
vn -0.017149 0.992977 -0.117059
vn -0.034262 0.993589 -0.107734
vn -0.002372 0.999990 -0.003822
vn -0.002713 0.994924 -0.100597
vn -0.034262 0.993589 -0.107734
vn -0.029751 0.998407 -0.047943
vn 0.000000 1.000000 0.000000
vn 0.000000 1.000000 0.000000
vn 0.000000 1.000000 0.000000
vn 0.000000 1.000000 0.000000
vn -0.002713 0.994924 0.100597
vn -0.002372 0.999990 0.003822
vn -0.029751 0.998407 0.047943
vn -0.034262 0.993589 0.107734
vn -0.001317 0.991334 0.131359
vn -0.002713 0.994924 0.100597
vn -0.034262 0.993589 0.107734
vn -0.015082 0.992986 0.117266
vn -0.000548 0.994609 0.103693
vn -0.001317 0.991334 0.131359
vn -0.015082 0.992986 0.117266
vn -0.005013 0.995327 0.096434
vn 0.000000 0.000000 -1.000000
vn 0.000000 0.000000 -1.000000
vn 0.000000 0.000000 -1.000000
vn 0.000000 0.000000 -1.000000
vn 0.000000 0.000000 1.000000
vn 0.000000 0.000000 1.000000
vn 0.000000 0.000000 1.000000
vn 0.000000 0.000000 1.000000
vn -0.002440 0.996382 0.084950
vn -0.001666 0.996275 0.086217
vn -0.034107 0.998877 0.032882
vn -0.034107 0.998877 0.032882
vn 0.001457 0.996404 0.084718
vn -0.001666 0.996275 0.086217
vn -0.002440 0.996382 0.084950
vn 0.002844 0.996996 0.077402
vn -0.003535 0.996659 -0.081602
vn -0.023346 0.999331 -0.028146
vn -0.023346 0.999331 -0.028146
vn -0.001739 0.996256 -0.086433
vn -0.000719 0.991336 -0.131346
vn -0.001443 0.994609 -0.103688
vn -0.000480 0.994630 -0.103499
vn -0.001125 0.991482 -0.130237
vn 0.001204 0.995007 -0.099800
vn -0.000719 0.991336 -0.131346
vn -0.001125 0.991482 -0.130237
vn -0.002713 0.994924 -0.100597
vn 0.001352 0.999997 -0.002179
vn 0.001204 0.995007 -0.099800
vn -0.002713 0.994924 -0.100597
vn -0.002372 0.999990 -0.003822
vn 0.001204 0.995007 0.099800
vn 0.001352 0.999997 0.002179
vn -0.002372 0.999990 0.003822
vn -0.002713 0.994924 0.100597
vn -0.000722 0.991478 0.130276
vn 0.001204 0.995007 0.099800
vn -0.002713 0.994924 0.100597
vn -0.001317 0.991334 0.131359
vn -0.001828 0.994619 0.103587
vn -0.000722 0.991478 0.130276
vn -0.001317 0.991334 0.131359
vn -0.000548 0.994609 0.103693
vn 0.000000 1.000000 0.000000
vn 0.000000 1.000000 0.000000
vn 0.000000 1.000000 0.000000
vn 0.000000 1.000000 0.000000
vn 0.000000 0.000000 1.000000
vn 0.000000 0.000000 1.000000
vn 0.000000 0.000000 1.000000
vn 0.000000 0.000000 1.000000
s off
g DrivingMiniExt:RoadKillOut
usemtl lambert14SG
f 3/1/1 1/2/2 2/3/3 4/4/4
f 5/5/5 3/1/6 4/4/7 6/6/8
f 7/7/9 5/8/10 6/9/11 8/10/12
f 20/11/13 19/12/14 17/13/15 18/14/16
f 11/15/17 9/16/18 10/17/19 12/18/20
f 13/19/21 11/20/22 12/21/23 14/22/24
f 15/23/25 13/19/26 14/22/27 16/24/28
f 17/13/29 7/7/30 8/10/31 18/14/32
f 19/12/33 9/16/34 31/25/35 41/26/36
f 19/12/37 20/11/38 10/17/39 9/16/40
f 1/2/41 23/27/42 21/28/43 2/3/44
f 48/29/45 23/27/46 1/2/47 39/30/48
f 15/23/49 16/24/50 22/31/51 24/32/52
f 27/33/53 25/34/54 26/35/55 28/36/56
f 29/37/57 27/33/58 28/36/59 30/38/60
f 31/25/61 29/39/62 30/40/63 32/41/64
f 44/42/65 43/43/66 41/26/67 42/44/68
f 35/45/69 33/46/70 34/47/71 36/48/72
f 37/49/73 35/50/74 36/51/75 38/52/76
f 39/30/77 37/49/78 38/52/79 40/53/80
f 41/26/81 31/25/82 32/41/83 42/44/84
f 17/13/85 43/43/86 33/46/87 7/7/88
f 25/34/89 47/54/90 45/55/91 26/35/92
f 24/32/93 47/54/94 25/34/95 15/23/96
f 39/30/97 40/53/98 46/56/99 48/29/100
f 13/19/101 15/23/102 25/34/103 27/33/104
f 11/20/105 13/19/106 27/33/107 29/37/108
f 9/16/109 11/15/110 29/39/111 31/25/112
f 5/8/113 7/7/114 33/46/115 35/45/116
f 3/1/117 5/5/118 35/50/119 37/49/120
f 1/2/121 3/1/122 37/49/123 39/30/124
f 17/13/125 19/12/126 41/26/127 43/43/128
f 34/47/129 33/46/130 43/43/131 44/42/132
