# This file uses meters as units for non-parametric coordinates.

mtllib FenceWall.mtl
g default
v 1498.951704 130.256231 1758.325095
v 1537.197637 130.256231 1758.325095
v 1498.951704 849.244051 1758.325095
v 1537.197637 849.244051 1758.325095
v 1498.951704 849.244051 783.193511
v 1537.197637 849.244051 783.193511
v 1498.951704 130.256231 783.193511
v 1537.197637 130.256231 783.193511
vt 0.011156 0.489347
vt 0.824334 0.489347
vt 0.824334 0.984377
vt 0.011156 0.984377
vt 0.021228 0.010787
vt 0.796858 0.010787
vt 0.796858 0.482958
vt 0.021228 0.482958
vt 0.847122 0.602584
vt 0.980652 0.602584
vt 0.980652 0.736115
vt 0.847122 0.736115
vt 0.838756 0.056025
vt 0.988089 0.056025
vt 0.988089 0.205358
vt 0.838756 0.205358
vt 0.839271 0.368054
vt 0.988604 0.368054
vt 0.988604 0.517387
vt 0.839271 0.517387
vt 0.836829 0.213766
vt 0.986162 0.213766
vt 0.986162 0.363099
vt 0.836829 0.363099
vn 0.000000 0.000000 1.000000
vn 0.000000 0.000000 1.000000
vn 0.000000 0.000000 1.000000
vn 0.000000 0.000000 1.000000
vn 0.000000 1.000000 0.000000
vn 0.000000 1.000000 0.000000
vn 0.000000 1.000000 0.000000
vn 0.000000 1.000000 0.000000
vn 0.000000 0.000000 -1.000000
vn 0.000000 0.000000 -1.000000
vn 0.000000 0.000000 -1.000000
vn 0.000000 0.000000 -1.000000
vn 0.000000 -1.000000 0.000000
vn 0.000000 -1.000000 0.000000
vn 0.000000 -1.000000 0.000000
vn 0.000000 -1.000000 0.000000
vn 1.000000 0.000000 0.000000
vn 1.000000 0.000000 0.000000
vn 1.000000 0.000000 0.000000
vn 1.000000 0.000000 0.000000
vn -1.000000 0.000000 0.000000
vn -1.000000 0.000000 0.000000
vn -1.000000 0.000000 0.000000
vn -1.000000 0.000000 0.000000
s off
g FenceWall1
usemtl lambert13SG
f 1/17/1 2/18/2 4/19/3 3/20/4
f 3/9/5 4/10/6 6/11/7 5/12/8
f 5/21/9 6/22/10 8/23/11 7/24/12
f 7/13/13 8/14/14 2/15/15 1/16/16
f 2/1/17 8/2/18 6/3/19 4/4/20
f 7/5/21 1/6/22 3/7/23 5/8/24
