# This file uses meters as units for non-parametric coordinates.

mtllib Beach.mtl
g default
v -2341.718262 2539.222900 1581.308960
v -635.310547 2395.661377 1480.669922
v -424.973389 2324.039307 1483.099609
v 355.742432 2269.622559 1497.677002
v 620.939514 2382.839844 1480.669922
v 2058.223389 2430.158691 1451.643799
v -2441.532227 2563.760254 818.592896
v -635.310547 2402.207520 836.920044
v -424.973389 2344.276123 839.349487
v 355.742432 2285.934326 853.927124
v 620.939514 2399.826172 836.920044
v 2057.016846 2424.470459 922.066284
v -2468.354004 2547.132324 557.979370
v -667.312378 2360.531250 589.467896
v -453.827881 2345.565430 591.897461
v 365.224609 2285.934326 599.313599
v 637.450317 2339.127197 582.689087
v 2045.541748 2379.792725 605.163452
v -2704.764648 2545.265137 -24.951538
v -941.718140 2333.488281 -70.478149
v -682.857300 2321.549072 -71.743652
v 432.214966 2234.475342 -71.743652
v 757.947083 2238.762939 -71.743652
v 2113.929443 2317.782715 -17.105957
v -2733.789063 2546.953613 -466.844360
v -941.718140 2316.501465 -566.781616
v -644.401672 2304.562256 -600.159790
v 417.575073 2227.809082 -600.159790
v 732.303772 2231.144531 -600.159790
v 2053.685547 2301.718262 -538.547241
v -2727.215088 2555.452881 -803.092651
v -893.794434 2313.670166 -787.020386
v -413.667725 2301.730957 -942.999878
v 329.735657 2227.809082 -942.999878
v 578.442993 2231.144531 -942.999878
v 1889.519165 2294.405029 -859.874390
v -2543.949219 2560.681152 -1268.276001
v -606.251648 2301.170166 -1361.749634
v -375.212036 2289.230957 -1387.535767
v 315.095764 2215.309082 -1387.535767
v 552.799622 2218.644531 -1387.535767
v 1813.827393 2282.039551 -1209.265015
v -323.469604 2058.027588 1500.106445
v -9.338348 2030.326416 1500.106445
v 286.081665 2064.635742 1500.106445
v 895.939392 2392.361572 1480.669800
v -904.060669 2408.161377 836.919800
v -323.469604 2101.474854 856.356567
v -9.338348 2042.826416 856.356567
v 286.081665 2077.135742 856.356567
v 895.939392 2409.736328 836.919800
v -922.441956 2360.531250 609.804443
v -327.711914 2106.632568 629.022583
v -9.947128 2042.826416 601.688599
v 293.717590 2077.135742 601.688599
v 919.738586 2340.365967 582.689087
v -1267.450562 2333.488525 -66.681885
v -482.825745 2103.801514 -71.743652
v -14.208542 2041.410889 -71.743652
v 347.169067 2077.135742 -71.743652
v 1091.254272 2238.762939 -71.743652
v -1267.450562 2316.501465 -544.003784
v -458.053223 2086.814453 -600.159790
v -13.238754 2032.917480 -600.159790
v 335.402222 2077.135742 -600.159790
v 1054.351563 2231.144531 -600.159790
v -1208.523193 2313.670166 -783.223999
v -309.417816 2083.983398 -942.999878
v -7.420135 2031.501709 -942.999878
v 264.800293 2077.135742 -942.999878
v 832.934265 2231.144531 -942.999878
v -854.958984 2301.170166 -1361.749634
v -284.645233 2071.483398 -1387.535767
v -6.450363 2019.001709 -1387.535767
v 253.033340 2064.635742 -1387.535767
v 796.031372 2218.644531 -1387.535767
v -904.060669 2402.465576 1480.669800
v -2417.442627 2439.363770 2172.321777
v -1022.424255 2232.663818 2061.783447
v -638.805969 2225.859619 2085.872070
v -478.472168 2154.237549 2084.142090
v -373.473053 1888.225830 2101.168701
v -9.338348 1860.524658 2105.328857
v 296.629028 1894.833984 2105.144775
v 385.656555 2099.820801 2102.095215
v 640.306396 2213.038086 2085.271729
v 1014.303040 2222.559814 2061.783447
v 2215.117920 2358.540283 2002.469849
v -2620.660889 2212.554199 2872.810059
v -1196.453125 1649.026367 2936.496826
v -571.246887 1552.562012 2949.543457
v -437.870300 1478.616455 2810.510742
v 9.263596 1445.532471 2900.319580
v 374.618347 1447.703613 2809.959717
v 640.936584 1624.924072 2934.541992
v 1185.242188 1641.369629 2929.903809
v 2513.668457 2166.389648 2766.130859
v -3331.844238 1283.949463 3619.503418
v -2142.270752 1184.591675 3865.113525
v -915.612793 1152.495239 3900.425781
v -699.749878 1125.703857 3811.821777
v -1.077225 1068.490967 3768.407471
v 640.405884 1106.564697 3824.562744
v 1082.848877 1161.187378 3894.339844
v 2122.026855 1175.256836 3861.234375
v 3324.381592 1271.338135 3613.663818
v -10601.748047 1916.756104 4705.540527
v -3984.655029 799.549072 10100.128906
v -1371.683838 797.043579 10127.491211
v -972.393616 795.368896 10169.172852
v -11.085037 772.186646 10209.465820
v 1224.071777 805.292114 10206.086914
v 1863.584351 842.988342 10149.257813
v 3952.440674 790.600281 10095.408203
v 10592.438477 1904.697388 4698.630859
v -11651.892578 1609.031982 5221.461914
v -5603.012695 226.990295 11056.314453
v -1792.154785 193.576996 11275.463867
v -1349.918945 205.229858 11332.980469
v -56.756088 182.420227 11388.816406
v 1641.039185 219.802185 11384.209961
v 2437.178223 261.234070 11308.189453
v 5569.932129 220.920502 11054.441406
v 11465.909180 1612.938721 5058.517090
v -11265.921875 2594.404541 -244.823120
v 9927.697266 2119.480469 -80.587036
v 10476.749023 2308.749756 3799.902344
v 10371.182617 2272.358154 3053.783691
v 10294.120117 2245.793213 2509.137207
v 10223.651367 2221.501221 2011.092529
v 10169.944336 2202.987793 1631.517578
v 10086.503906 2174.224365 1041.800293
v 10013.666992 2149.115723 527.009644
v 9971.237305 2134.489258 227.130493
v -10686.287109 2391.064697 4003.411133
v -10769.556641 2420.276367 3393.114746
v -10854.834961 2450.192627 2768.093506
v -10986.408203 2496.349365 1803.772583
v -11028.541992 2511.130127 1494.972046
v -11093.826172 2534.032471 1016.489502
v -11151.875000 2554.396240 591.044312
v -11208.401367 2574.226318 176.749146
v 11426.186523 2340.020508 3664.041504
v 11320.990234 2285.074707 2918.775391
v 11244.148438 2227.692871 2375.599854
v 11173.273438 2183.211426 1878.596313
v 11119.455078 2160.847412 1499.225098
v 11036.293945 2140.765381 909.046021
v 10963.572266 2119.774170 394.038818
v 10921.115234 2103.982910 94.218872
v 10877.559570 2088.365967 -213.468872
v -11987.759766 2416.141846 4182.186035
v -12071.402344 2423.690430 3570.903076
v -12156.774414 2440.272949 2945.256836
v -12288.348633 2486.248535 1980.928955
v -12330.482422 2505.164551 1672.325317
v -12395.753906 2531.629150 1194.011230
v -12453.789063 2554.684326 768.692749
v -12510.300781 2576.448730 354.488403
v -12567.813477 2597.603271 -67.036255
vt 0.280696 0.767058
vt 0.138825 0.769031
vt 0.147828 0.698894
vt 0.280095 0.710063
vt 0.303848 0.709585
vt 0.304822 0.767017
vt 0.323850 0.708028
vt 0.324697 0.766765
vt 0.385157 0.752881
vt 0.348337 0.756057
vt 0.344736 0.697707
vt 0.384582 0.694380
vt 0.497289 0.764913
vt 0.468298 0.765237
vt 0.468161 0.706717
vt 0.496911 0.706163
vt 0.524166 0.764768
vt 0.523971 0.706473
vt 0.632731 0.753450
vt 0.600663 0.750946
vt 0.609756 0.692837
vt 0.641295 0.695300
vt 0.663005 0.768112
vt 0.664072 0.709638
vt 0.689303 0.713147
vt 0.688960 0.769223
vt 0.712978 0.768883
vt 0.713313 0.713536
vt 0.824443 0.713416
vt 0.824673 0.762388
vt 0.278847 0.788040
vt 0.302186 0.789771
vt 0.321820 0.789529
vt 0.386458 0.773486
vt 0.348887 0.778644
vt 0.468056 0.785797
vt 0.497407 0.787994
vt 0.525035 0.787766
vt 0.596732 0.773919
vt 0.628888 0.776429
vt 0.715798 0.792339
vt 0.824975 0.791234
vt 0.136123 0.792596
vt 0.664701 0.791596
vt 0.690142 0.792482
vt 0.247596 0.849589
vt 0.277202 0.849989
vt 0.300828 0.850206
vt 0.344736 0.842280
vt 0.385984 0.838563
vt 0.497577 0.848972
vt 0.530439 0.848624
vt 0.587879 0.834927
vt 0.613914 0.837056
vt 0.672082 0.853150
vt 0.701835 0.852681
vt 0.732279 0.852294
vt 0.832412 0.847988
vt 0.454791 0.849348
vt 0.114862 0.845776
vt 0.247407 0.892967
vt 0.112275 0.885959
vt 0.277018 0.895198
vt 0.304114 0.898415
vt 0.400393 0.885647
vt 0.360415 0.889274
vt 0.498145 0.896800
vt 0.457614 0.897148
vt 0.529923 0.896422
vt 0.601872 0.884410
vt 0.576889 0.882368
vt 0.671539 0.901409
vt 0.700256 0.900890
vt 0.729420 0.900254
vt 0.827443 0.895780
vt 0.252640 0.914731
vt 0.112982 0.916560
vt 0.281253 0.915277
vt 0.324890 0.929834
vt 0.389193 0.921845
vt 0.422170 0.916496
vt 0.498987 0.927859
vt 0.471208 0.928098
vt 0.523998 0.927522
vt 0.565260 0.913286
vt 0.589083 0.915513
vt 0.664105 0.932875
vt 0.686815 0.932471
vt 0.710134 0.932101
vt 0.813624 0.925397
vt 0.284356 0.967664
vt 0.129504 0.958922
vt 0.307019 0.967853
vt 0.328080 0.970385
vt 0.440487 0.955121
vt 0.408298 0.960407
vt 0.499546 0.968158
vt 0.473913 0.968342
vt 0.523373 0.967777
vt 0.576800 0.955136
vt 0.553142 0.952920
vt 0.663417 0.973437
vt 0.685092 0.973087
vt 0.707262 0.972753
vt 0.807433 0.957364
vt 0.140339 0.643922
vt 0.268742 0.657007
vt 0.302698 0.654365
vt 0.318079 0.651671
vt 0.358305 0.641543
vt 0.398339 0.638262
vt 0.463223 0.650133
vt 0.496332 0.648573
vt 0.524366 0.649423
vt 0.597025 0.636393
vt 0.629617 0.638771
vt 0.667882 0.652465
vt 0.692430 0.658335
vt 0.725495 0.661437
vt 0.838342 0.661413
vt 0.120167 0.576437
vt 0.251902 0.562327
vt 0.310442 0.556191
vt 0.328080 0.562352
vt 0.441296 0.569085
vt 0.456747 0.576081
vt 0.496954 0.567029
vt 0.530442 0.573640
vt 0.553142 0.565377
vt 0.663005 0.563458
vt 0.695258 0.564168
vt 0.746238 0.567773
vt 0.869467 0.589188
vt 0.411426 0.511724
vt 0.361686 0.509861
vt 0.339372 0.481503
vt 0.381528 0.476314
vt 0.433460 0.512635
vt 0.424250 0.478581
vt 0.440216 0.516874
vt 0.431774 0.481805
vt 0.455899 0.514046
vt 0.456172 0.483783
vt 0.468564 0.517462
vt 0.478605 0.482310
vt 0.479954 0.513801
vt 0.494096 0.479599
vt 0.498927 0.513324
vt 0.530334 0.479451
vt 0.545421 0.517462
vt 0.572602 0.486863
vt 0.381525 0.425462
vt 0.324458 0.457488
vt 0.027286 0.370321
vt 0.321464 0.157405
vt 0.433265 0.427371
vt 0.431503 0.163551
vt 0.468305 0.429359
vt 0.466429 0.161177
vt 0.503932 0.431415
vt 0.506901 0.159880
vt 0.539283 0.428784
vt 0.558932 0.159242
vt 0.574581 0.422655
vt 0.593404 0.160048
vt 0.617964 0.421765
vt 0.680591 0.157412
vt 0.668751 0.429576
vt 0.969662 0.372122
vt 0.907814 0.226920
vt 0.975499 0.314628
vt 0.966928 0.328752
vt 0.892439 0.232149
vt 0.907527 0.193182
vt 0.890416 0.193611
vt 0.907061 0.188019
vt 0.889983 0.189123
vt 0.906485 0.175605
vt 0.889405 0.176048
vt 0.906770 0.159654
vt 0.889669 0.158882
vt 0.907665 0.151398
vt 0.890559 0.150836
vt 0.907971 0.124411
vt 0.892613 0.119125
vt 0.975499 0.035794
vt 0.966548 0.022235
vt 0.195042 0.458114
vt 0.190032 0.480332
vt 0.332785 0.054510
vt 0.218467 0.051947
vt 0.222317 0.039483
vt 0.338599 0.040018
vt 0.799548 0.473382
vt 0.793700 0.502714
vt 0.299023 0.154104
vt 0.182542 0.154104
vt 0.188027 0.137550
vt 0.306739 0.139854
vt 0.193598 0.122682
vt 0.313287 0.125315
vt 0.198857 0.107960
vt 0.315763 0.110423
vt 0.202864 0.095180
vt 0.318704 0.095768
vt 0.208008 0.078960
vt 0.319392 0.081317
vt 0.214082 0.063655
vt 0.323166 0.067790
vt 0.152927 0.077391
vt 0.152439 0.189769
vt 0.136872 0.195518
vt 0.136934 0.076265
vt 0.120979 0.199113
vt 0.120036 0.075208
vt 0.105012 0.198876
vt 0.099977 0.075814
vt 0.089416 0.198090
vt 0.088201 0.076068
vt 0.074170 0.193247
vt 0.072538 0.076362
vt 0.059089 0.193341
vt 0.057724 0.076416
vt 0.043867 0.194630
vt 0.042984 0.076078
vt 0.027662 0.201977
vt 0.027662 0.075309
vt 0.833385 0.461787
vt 0.827446 0.510864
vt 0.158280 0.147897
vt 0.163206 0.129495
vt 0.166817 0.114572
vt 0.170227 0.099840
vt 0.173060 0.087985
vt 0.177548 0.069821
vt 0.181445 0.052991
vt 0.184066 0.042296
vt 0.186879 0.030806
vt 0.143401 0.469817
vt 0.158661 0.433342
vt 0.140837 0.041100
vt 0.156987 0.043002
vt 0.124260 0.038966
vt 0.098040 0.034540
vt 0.088224 0.034132
vt 0.072811 0.033318
vt 0.058676 0.032512
vt 0.044683 0.031679
vt 0.030307 0.030806
vn -0.175545 0.984324 0.017014
vn -0.209533 0.977776 -0.007039
vn -0.200795 0.968716 0.145842
vn -0.170843 0.983310 0.062568
vn 0.099510 0.985087 0.140359
vn 0.105632 0.993930 -0.030749
vn 0.666342 0.733074 0.136345
vn 0.588906 0.808164 -0.007813
vn 0.748100 0.663406 0.015496
vn 0.607301 0.782405 0.137944
vn 0.020769 0.999466 0.025238
vn -0.004314 0.979051 0.203568
vn -0.650800 0.759230 0.005418
vn -0.662975 0.742872 0.092765
vn -0.598625 0.800968 -0.009976
vn -0.601508 0.783323 0.156821
vn -0.171378 0.975274 0.139534
vn -0.131631 0.990365 -0.043019
vn 0.264529 0.964272 -0.014281
vn 0.271614 0.961575 0.039995
vn 0.334737 0.939046 0.078381
vn 0.366699 0.926398 -0.085552
vn -0.150966 0.987355 -0.048375
vn 0.048860 0.995662 -0.079187
vn 0.420339 0.898962 -0.123214
vn 0.532916 0.839403 -0.106786
vn 0.040106 0.999145 -0.010066
vn -0.487231 0.872470 -0.037443
vn -0.319053 0.939456 -0.125009
vn 0.275347 0.947186 -0.164385
vn 0.364424 0.929490 -0.056953
vn -0.184611 0.981915 0.041984
vn -0.101406 0.982035 -0.159133
vn -0.155544 0.987217 0.034771
vn 0.020894 0.998849 -0.043173
vn 0.497367 0.858231 -0.126749
vn 0.489152 0.870011 -0.061729
vn 0.030966 0.999416 -0.014470
vn -0.443135 0.896125 -0.024329
vn -0.523326 0.848390 -0.079776
vn -0.032624 0.995775 -0.085837
vn 0.308236 0.949496 -0.058722
vn 0.370817 0.927106 -0.054493
vn -0.179702 0.983229 0.031097
vn -0.146753 0.989089 -0.012880
vn -0.170390 0.985324 -0.010208
vn 0.019631 0.999516 -0.024143
vn 0.497641 0.863541 0.081555
vn 0.347581 0.934800 0.073047
vn 0.018149 0.999835 -0.000091
vn -0.424904 0.904592 0.034194
vn -0.400293 0.915805 0.032651
vn -0.005524 0.999951 -0.008242
vn 0.308663 0.946089 -0.098199
vn 0.375341 0.913823 -0.155067
vn -0.128382 0.990689 -0.045308
vn -0.150273 0.987564 -0.046211
vn 0.013490 0.999840 -0.011748
vn 0.386649 0.914679 0.117747
vn 0.573858 0.811334 0.111462
vn 0.012130 0.999900 -0.007235
vn -0.573177 0.818310 0.042864
vn -0.359662 0.932369 0.036498
vn -0.006755 0.999891 -0.013104
vn 0.277151 0.952766 -0.124194
vn 0.378467 0.916961 -0.126278
vn -0.116316 0.990786 -0.069378
vn -0.141508 0.986727 -0.079659
vn 0.019836 0.999655 -0.017243
vn 0.640918 0.767048 0.029361
vn 0.406697 0.913559 -0.002837
vn 0.012031 0.999630 -0.024383
vn -0.356337 0.934180 -0.018232
vn -0.580527 0.814222 -0.005530
vn -0.007361 0.999587 -0.027774
vn 0.321015 0.944133 -0.074576
vn 0.378680 0.921837 -0.082576
vn -0.060003 0.899541 0.432695
vn -0.122694 0.949902 0.287457
vn 0.124194 0.865173 0.485852
vn 0.755374 0.542646 0.367349
vn 0.365963 0.861375 0.352283
vn 0.013610 0.882651 0.469831
vn -0.362792 0.864034 0.349038
vn -0.652898 0.621107 0.433531
vn -0.126891 0.881632 0.454559
vn 0.218964 0.948105 0.230548
vn 0.151389 0.914278 0.375736
vn -0.024526 0.926189 0.376262
vn 0.042296 0.945159 0.323859
vn 0.184016 0.955027 0.232511
vn 0.083941 0.964465 0.250520
vn 0.024745 0.991965 0.124073
vn -0.105354 0.973034 0.205195
vn -0.182205 0.925413 0.332282
vn 0.004577 0.965369 0.260849
vn 0.070877 0.954593 0.289358
vn 0.044152 0.997707 0.051290
vn 0.035884 0.998538 0.040418
vn 0.018075 0.999456 0.027574
vn 0.053211 0.998457 0.015912
vn 0.002848 0.999948 0.009779
vn -0.066177 0.997631 0.018804
vn -0.021295 0.999426 0.026343
vn -0.030134 0.998831 0.037804
vn -0.043208 0.998083 0.044309
vn -0.003956 0.991997 0.126196
vn -0.045277 0.985256 0.164986
vn 0.004584 0.993654 0.112385
vn 0.034106 0.996804 0.072246
vn -0.002777 0.992915 0.118793
vn -0.043592 0.994704 0.093075
vn -0.003564 0.997861 0.065269
vn 0.060731 0.981925 0.179261
vn 0.024327 0.991930 0.124433
vn -0.167544 0.937358 0.305432
vn -0.082698 0.922904 0.376044
vn -0.018119 0.903963 0.427226
vn -0.024296 0.914981 0.402766
vn -0.011976 0.915812 0.401428
vn -0.016702 0.915683 0.401555
vn 0.033275 0.909094 0.415260
vn 0.130898 0.920781 0.367462
vn 0.193362 0.924914 0.327331
vn 0.031159 0.986347 0.161704
vn 0.025678 0.998605 -0.046131
vn 0.026036 0.998538 -0.047365
vn -0.018890 0.998623 0.048941
vn -0.006366 0.998045 0.062172
vn 0.018647 0.999791 -0.008422
vn 0.030466 0.997597 -0.062220
vn 0.031553 0.996454 -0.078003
vn 0.027367 0.997973 -0.057460
vn 0.024833 0.998724 -0.043967
vn 0.021903 0.990329 0.136999
vn 0.001763 0.997707 0.067657
vn -0.003893 0.999405 0.034278
vn -0.001891 0.999853 0.017054
vn 0.001496 0.999667 0.025774
vn 0.004733 0.999428 0.033491
vn 0.006548 0.999362 0.035117
vn 0.006788 0.999461 0.032106
vn 0.044442 0.998800 0.020597
vn -0.023408 0.997732 -0.063107
vn 0.008798 0.997269 -0.073327
vn 0.029105 0.997584 -0.063076
vn 0.033487 0.998246 -0.048817
vn 0.028979 0.998451 -0.047489
vn 0.025021 0.998369 -0.051309
vn 0.024589 0.998266 -0.053475
vn 0.024936 0.998272 -0.053209
vn -0.004547 0.993851 0.110630
vn 0.008473 0.999434 0.032562
vn 0.000425 0.999071 0.043102
vn -0.000664 0.998788 0.049222
vn 0.002688 0.998622 0.052411
vn 0.004792 0.998707 0.050618
vn 0.006838 0.998744 0.049628
vn 0.008149 0.998794 0.048426
vn 0.008605 0.998820 0.047793
s 1
g Beach:RoadKillOut
usemtl lambert2SG
f 47/1/1 7/2/2 1/3/3 77/4/4
f 47/1/1 77/4/4 2/5/5 8/6/6
f 2/5/5 3/7/7 9/8/8 8/6/6
f 48/9/9 9/10/8 3/11/7 43/12/10
f 49/13/11 48/14/9 43/15/10 44/16/12
f 50/17/13 49/13/11 44/16/12 45/18/14
f 10/19/15 50/20/13 45/21/14 4/22/16
f 10/23/15 4/24/16 5/25/17 11/26/18
f 51/27/19 11/26/18 5/25/17 46/28/20
f 51/27/19 46/28/20 6/29/21 12/30/22
f 52/31/23 47/1/1 8/6/6 14/32/24
f 8/6/6 9/8/8 15/33/25 14/32/24
f 9/10/8 48/9/9 53/34/26 15/35/25
f 53/36/26 48/14/9 49/13/11 54/37/27
f 54/37/27 49/13/11 50/17/13 55/38/28
f 55/39/28 50/20/13 10/19/15 16/40/29
f 56/41/30 51/27/19 12/30/22 18/42/31
f 52/31/23 13/43/32 7/2/2 47/1/1
f 16/44/29 10/23/15 11/26/18 17/45/33
f 56/41/30 17/45/33 11/26/18 51/27/19
f 57/46/34 52/31/23 14/32/24 20/47/35
f 20/47/35 14/32/24 15/33/25 21/48/36
f 21/49/36 15/35/25 53/34/26 58/50/37
f 59/51/38 54/37/27 55/38/28 60/52/39
f 60/53/39 55/39/28 16/40/29 22/54/40
f 22/55/40 16/44/29 17/45/33 23/56/41
f 61/57/42 56/41/30 18/42/31 24/58/43
f 59/51/38 58/59/37 53/36/26 54/37/27
f 57/46/34 19/60/44 13/43/32 52/31/23
f 61/57/42 23/56/41 17/45/33 56/41/30
f 62/61/45 25/62/46 19/60/44 57/46/34
f 62/61/45 57/46/34 20/47/35 26/63/47
f 20/47/35 21/48/36 27/64/48 26/63/47
f 63/65/49 27/66/48 21/49/36 58/50/37
f 64/67/50 63/68/49 58/59/37 59/51/38
f 65/69/51 64/67/50 59/51/38 60/52/39
f 28/70/52 65/71/51 60/53/39 22/54/40
f 28/72/52 22/55/40 23/56/41 29/73/53
f 66/74/54 29/73/53 23/56/41 61/57/42
f 66/74/54 61/57/42 24/58/43 30/75/55
f 67/76/56 31/77/57 25/62/46 62/61/45
f 67/76/56 62/61/45 26/63/47 32/78/58
f 32/78/58 26/63/47 27/64/48 33/79/59
f 33/80/59 27/66/48 63/65/49 68/81/60
f 69/82/61 68/83/60 63/68/49 64/67/50
f 69/82/61 64/67/50 65/69/51 70/84/62
f 70/85/62 65/71/51 28/70/52 34/86/63
f 34/87/63 28/72/52 29/73/53 35/88/64
f 71/89/65 35/88/64 29/73/53 66/74/54
f 71/89/65 66/74/54 30/75/55 36/90/66
f 72/91/67 37/92/68 31/77/57 67/76/56
f 72/91/67 67/76/56 32/78/58 38/93/69
f 32/78/58 33/79/59 39/94/70 38/93/69
f 73/95/71 39/96/70 33/80/59 68/81/60
f 74/97/72 73/98/71 68/83/60 69/82/61
f 75/99/73 74/97/72 69/82/61 70/84/62
f 40/100/74 75/101/73 70/85/62 34/86/63
f 40/102/74 34/87/63 35/88/64 41/103/75
f 76/104/76 41/103/75 35/88/64 71/89/65
f 76/104/76 71/89/65 36/90/66 42/105/77
f 77/4/4 1/3/3 78/106/78 79/107/79
f 2/5/5 77/4/4 79/107/79 80/108/80
f 3/7/7 2/5/5 80/108/80 81/109/81
f 43/12/10 3/11/7 81/110/81 82/111/82
f 44/16/12 43/15/10 82/112/82 83/113/83
f 45/18/14 44/16/12 83/113/83 84/114/84
f 4/22/16 45/21/14 84/115/84 85/116/85
f 5/25/17 4/24/16 85/117/85 86/118/86
f 46/28/20 5/25/17 86/118/86 87/119/87
f 6/29/21 46/28/20 87/119/87 88/120/88
f 79/107/79 78/106/78 89/121/89 90/122/90
f 80/108/80 79/107/79 90/122/90 91/123/91
f 81/109/81 80/108/80 91/123/91 92/124/92
f 82/111/82 81/110/81 92/125/92
f 83/113/83 82/112/82 92/126/92 93/127/93
f 84/114/84 83/113/83 93/127/93 94/128/94
f 85/116/85 84/115/84 94/129/94
f 86/118/86 85/117/85 94/130/94 95/131/95
f 87/119/87 86/118/86 95/131/95 96/132/96
f 88/120/88 87/119/87 96/132/96 97/133/97
f 90/134/90 89/135/89 98/136/98 99/137/99
f 91/138/91 90/134/90 99/137/99 100/139/100
f 92/140/92 91/138/91 100/139/100 101/141/101
f 93/142/93 92/140/92 101/141/101 102/143/102
f 94/144/94 93/142/93 102/143/102 103/145/103
f 95/146/95 94/144/94 103/145/103 104/147/104
f 96/148/96 95/146/95 104/147/104 105/149/105
f 97/150/97 96/148/96 105/149/105 106/151/106
f 99/152/99 98/153/98 107/154/107 108/155/108
f 100/156/100 99/152/99 108/155/108 109/157/109
f 101/158/101 100/156/100 109/157/109 110/159/110
f 102/160/102 101/158/101 110/159/110 111/161/111
f 103/162/103 102/160/102 111/161/111 112/163/112
f 104/164/104 103/162/103 112/163/112 113/165/113
f 105/166/105 104/164/104 113/165/113 114/167/114
f 106/168/106 105/166/105 114/167/114 115/169/115
f 108/170/108 107/171/107 116/172/116 117/173/117
f 109/174/109 108/170/108 117/173/117 118/175/118
f 110/176/110 109/174/109 118/175/118 119/177/119
f 111/178/111 110/176/110 119/177/119 120/179/120
f 112/180/112 111/178/111 120/179/120 121/181/121
f 113/182/113 112/180/112 121/181/121 122/183/122
f 114/184/114 113/182/113 122/183/122 123/185/123
f 115/186/115 114/184/114 123/185/123 124/187/124
f 107/188/107 98/136/98 89/135/89 135/189/125
f 36/190/66 134/191/126 126/192/127 42/193/77
f 106/151/106 115/194/115 127/195/128 97/150/97
f 97/196/97 127/197/128 128/198/129 88/199/88
f 88/199/88 128/198/129 129/200/130 6/201/21
f 6/201/21 129/200/130 130/202/131 12/203/22
f 12/203/22 130/202/131 131/204/132 18/205/31
f 18/205/31 131/204/132 132/206/133 24/207/43
f 24/207/43 132/206/133 133/208/134 30/209/55
f 30/209/55 133/208/134 134/191/126 36/190/66
f 135/210/125 89/211/89 78/212/78 136/213/135
f 136/213/135 78/212/78 1/214/3 137/215/136
f 137/215/136 1/214/3 7/216/2 138/217/137
f 138/217/137 7/216/2 13/218/32 139/219/138
f 139/219/138 13/218/32 19/220/44 140/221/139
f 140/221/139 19/220/44 25/222/46 141/223/140
f 141/223/140 25/222/46 31/224/57 142/225/141
f 142/225/141 31/224/57 37/226/68 125/227/142
f 127/195/128 115/194/115 124/228/124 143/229/143
f 128/198/129 127/197/128 143/230/143 144/231/144
f 129/200/130 128/198/129 144/231/144 145/232/145
f 130/202/131 129/200/130 145/232/145 146/233/146
f 131/204/132 130/202/131 146/233/146 147/234/147
f 132/206/133 131/204/132 147/234/147 148/235/148
f 133/208/134 132/206/133 148/235/148 149/236/149
f 134/191/126 133/208/134 149/236/149 150/237/150
f 126/192/127 134/191/126 150/237/150 151/238/151
f 107/188/107 135/189/125 152/239/152 116/240/116
f 135/210/125 136/213/135 153/241/153 152/242/152
f 136/213/135 137/215/136 154/243/154 153/241/153
f 137/215/136 138/217/137 155/244/155 154/243/154
f 138/217/137 139/219/138 156/245/156 155/244/155
f 139/219/138 140/221/139 157/246/157 156/245/156
f 140/221/139 141/223/140 158/247/158 157/246/157
f 141/223/140 142/225/141 159/248/159 158/247/158
f 142/225/141 125/227/142 160/249/160 159/248/159
