# 3ds Max Wavefront OBJ Exporter v0.97b - (c)2007 guruware
# File Created: 18.04.2017 11:39:58

mtllib FireHydrent.mtl

#
# object Cylinder001
#

v  1.3198 1.0880 0.0227
v  1.0269 1.0880 -0.7820
v  1.0269 1.3042 -0.7820
v  1.3198 1.3042 0.0227
v  0.2853 1.0880 -1.2101
v  0.2853 1.3042 -1.2101
v  -0.5580 1.0880 -1.0614
v  -0.5580 1.3042 -1.0614
v  -1.1085 1.0880 -0.4054
v  -1.1085 1.3042 -0.4054
v  -1.1085 1.0880 0.4509
v  -1.1085 1.3042 0.4509
v  -0.5580 1.0880 1.1069
v  -0.5580 1.3042 1.1069
v  0.2853 1.0880 1.2556
v  0.2853 1.3042 1.2556
v  1.0269 1.0880 0.8274
v  1.0269 1.3042 0.8274
v  0.6728 1.0880 0.0227
v  0.5313 1.0880 -0.3661
v  0.1729 1.0880 -0.5730
v  -0.2345 1.0880 -0.5011
v  -0.5005 1.0880 -0.1841
v  -0.5005 1.0880 0.2296
v  -0.2345 1.0880 0.5466
v  0.1729 1.0880 0.6184
v  0.5313 1.0880 0.4115
v  0.0679 1.0880 0.0227
v  0.7571 5.0016 -0.5556
v  0.6886 5.3783 -0.4981
v  0.8782 5.3783 0.0227
v  0.9676 5.0016 0.0227
v  0.2241 5.0016 -0.8632
v  0.2086 5.3783 -0.7752
v  -0.3819 5.0016 -0.7564
v  -0.3372 5.3783 -0.6790
v  -0.7775 5.0016 -0.2850
v  -0.6935 5.3783 -0.2544
v  -0.7775 5.0016 0.3304
v  -0.6935 5.3783 0.2999
v  -0.3819 5.0016 0.8018
v  -0.3372 5.3783 0.7244
v  0.2241 5.0016 0.9087
v  0.2086 5.3783 0.8207
v  0.7571 5.0016 0.6010
v  0.6886 5.3783 0.5436
v  0.5177 5.8550 0.0227
v  0.4125 5.8550 -0.2664
v  0.1506 5.9170 -0.0467
v  0.1759 5.9170 0.0227
v  0.1460 5.8550 -0.4203
v  0.0867 5.9170 -0.0836
v  -0.1570 5.8550 -0.3668
v  0.0139 5.9170 -0.0708
v  -0.3548 5.8550 -0.1311
v  -0.0335 5.9170 -0.0142
v  -0.3548 5.8550 0.1766
v  -0.0335 5.9170 0.0597
v  -0.1570 5.8550 0.4123
v  0.0139 5.9170 0.1162
v  0.1460 5.8550 0.4657
v  0.0867 5.9170 0.1290
v  0.4125 5.8550 0.3119
v  0.1506 5.9170 0.0921
v  0.7041 1.3042 -0.5111
v  0.8984 1.3042 0.0227
v  0.2121 1.3042 -0.7952
v  -0.3474 1.3042 -0.6965
v  -0.7125 1.3042 -0.2613
v  -0.7125 1.3042 0.3068
v  -0.3474 1.3042 0.7420
v  0.2121 1.3042 0.8406
v  0.7041 1.3042 0.5566
v  0.7041 4.8078 -0.5111
v  0.8984 2.6173 0.0227
v  0.8984 4.8078 0.0227
v  0.8984 3.7126 0.0227
v  0.8984 3.2711 0.0227
v  0.8984 3.0589 0.0227
v  0.2121 4.8078 -0.7952
v  -0.3474 4.8078 -0.6965
v  -0.7125 4.8078 -0.2613
v  -0.7125 4.8078 0.3068
v  -0.3474 4.8078 0.7420
v  0.2121 4.8078 0.8406
v  0.7041 2.6173 0.5566
v  0.7041 3.0589 0.5566
v  0.7041 3.2711 0.5566
v  0.7041 3.7126 0.5566
v  0.7041 4.8078 0.5566
v  1.0223 3.1371 0.2907
v  1.0223 3.1928 0.2907
v  1.0053 3.2486 0.3374
v  0.9713 3.1928 0.4309
v  0.9883 3.2486 0.3842
v  0.9713 3.1371 0.4309
v  0.9883 3.0814 0.3842
v  1.0053 3.0814 0.3374
v  0.8845 4.8078 -0.6625
v  1.1339 4.8078 0.0227
v  0.2530 4.8078 -1.0270
v  -0.4651 4.8078 -0.9004
v  -0.9338 4.8078 -0.3419
v  -0.9338 4.8078 0.3873
v  -0.4651 4.8078 0.9459
v  0.2530 4.8078 1.0725
v  0.8845 4.8078 0.7079
v  0.8845 5.0016 -0.6625
v  1.1339 5.0016 0.0227
v  0.2530 5.0016 -1.0270
v  -0.4651 5.0016 -0.9004
v  -0.9338 5.0016 -0.3419
v  -0.9338 5.0016 0.3873
v  -0.4651 5.0016 0.9459
v  0.2530 5.0016 1.0725
v  0.8845 5.0016 0.7079
v  0.4125 5.7550 -0.2664
v  0.5177 5.7550 0.0227
v  0.1460 5.7550 -0.4203
v  -0.1570 5.7550 -0.3668
v  -0.3548 5.7550 -0.1311
v  -0.3548 5.7550 0.1766
v  -0.1570 5.7550 0.4123
v  0.1460 5.7550 0.4657
v  0.4125 5.7550 0.3119
v  0.7689 3.4833 0.3786
v  0.8337 3.4833 0.2007
v  0.8337 2.8467 0.2007
v  0.7689 2.8467 0.3786
v  0.9636 3.2711 0.0465
v  0.9636 3.0589 0.0465
v  0.8988 3.4833 0.2244
v  0.8341 3.4833 0.4024
v  0.7693 3.2711 0.5803
v  0.7693 3.0589 0.5803
v  0.8341 2.8467 0.4024
v  0.8988 2.8467 0.2244
v  0.9485 3.2546 0.0879
v  0.9485 3.0753 0.0879
v  0.8938 3.4338 0.2382
v  0.8391 3.4338 0.3885
v  0.7844 3.2546 0.5389
v  0.7844 3.0753 0.5389
v  0.8391 2.8961 0.3885
v  0.8938 2.8961 0.2382
v  1.0137 3.2546 0.1116
v  1.0137 3.0753 0.1116
v  0.9590 3.4338 0.2619
v  0.9043 3.4338 0.4123
v  0.8496 3.2546 0.5626
v  0.8496 3.0753 0.5626
v  0.9043 2.8961 0.4123
v  0.9590 2.8961 0.2619
v  0.9572 3.1928 0.2670
v  0.9572 3.1371 0.2670
v  0.9401 3.2486 0.3137
v  0.9231 3.2486 0.3605
v  0.9061 3.1928 0.4072
v  0.9061 3.1371 0.4072
v  0.9231 3.0814 0.3605
v  0.9401 3.0814 0.3137
v  0.1506 6.0506 -0.0467
v  0.0679 6.0556 0.0227
v  0.1759 6.0506 0.0227
v  0.0867 6.0506 -0.0836
v  0.0139 6.0506 -0.0708
v  -0.0335 6.0506 -0.0142
v  -0.0335 6.0506 0.0597
v  0.0139 6.0506 0.1162
v  0.0867 6.0506 0.1290
v  0.1506 6.0506 0.0921
# 171 vertices

vn 1.0000 0.0000 0.0000
vn 0.7660 0.0000 -0.6428
vn 0.1736 0.0000 -0.9848
vn -0.5000 0.0000 -0.8660
vn -0.9397 0.0000 -0.3420
vn -0.9397 0.0000 0.3420
vn -0.5000 0.0000 0.8660
vn 0.1736 0.0000 0.9848
vn 0.7660 0.0000 0.6428
vn 0.0000 -1.0000 -0.0000
vn 0.7453 0.2309 -0.6254
vn 0.6820 0.4553 -0.5723
vn 0.8903 0.4553 0.0000
vn 0.9730 0.2309 0.0000
vn 0.1690 0.2309 -0.9582
vn 0.1546 0.4553 -0.8768
vn -0.4865 0.2309 -0.8426
vn -0.4452 0.4553 -0.7711
vn -0.9143 0.2309 -0.3328
vn -0.8367 0.4553 -0.3045
vn -0.9143 0.2309 0.3328
vn -0.8367 0.4553 0.3045
vn -0.4865 0.2309 0.8426
vn -0.4452 0.4553 0.7711
vn 0.1690 0.2309 0.9582
vn 0.1546 0.4553 0.8768
vn 0.7453 0.2309 0.6254
vn 0.6820 0.4553 0.5723
vn 0.1786 0.9839 0.0000
vn 0.1368 0.9839 -0.1148
vn 0.0310 0.9839 -0.1759
vn -0.0893 0.9839 -0.1547
vn -0.1678 0.9839 -0.0611
vn -0.1678 0.9839 0.0611
vn -0.0893 0.9839 0.1547
vn 0.0310 0.9839 0.1759
vn 0.1368 0.9839 0.1148
vn 0.0000 1.0000 -0.0000
vn 0.9397 0.0000 -0.3420
vn 0.5000 0.0000 -0.8660
vn -0.1736 0.0000 -0.9848
vn -0.7660 0.0000 -0.6428
vn -1.0000 -0.0000 0.0000
vn -0.7660 0.0000 0.6428
vn -0.1736 0.0000 0.9848
vn 0.5000 0.0000 0.8660
vn 0.9397 -0.0000 0.3420
vn 0.9397 0.0000 0.3420
vn 0.9397 -0.0000 -0.3420
vn 0.5000 -0.0000 -0.8660
vn -1.0000 0.0000 0.0000
vn 0.5000 -0.0000 0.8660
vn 0.5535 0.6914 -0.4644
vn 0.7225 0.6914 0.0000
vn 0.1255 0.6914 -0.7115
vn -0.3612 0.6914 -0.6257
vn -0.6789 0.6914 -0.2471
vn -0.6789 0.6914 0.2471
vn -0.3613 0.6914 0.6257
vn 0.1255 0.6914 0.7115
vn 0.5535 0.6914 0.4644
vn 0.3420 0.0000 -0.9397
vn 0.2552 0.6658 -0.7011
vn -0.2552 0.6658 0.7011
vn -0.3420 0.0000 0.9397
vn -0.2552 -0.6658 0.7011
vn 0.2552 -0.6658 -0.7011
vn 0.0358 0.9989 -0.0300
vn 0.0467 0.9989 0.0000
vn 0.0081 0.9989 -0.0460
vn -0.0233 0.9989 -0.0404
vn -0.0439 0.9989 -0.0160
vn -0.0439 0.9989 0.0160
vn -0.0233 0.9989 0.0404
vn 0.0081 0.9989 0.0460
vn 0.0358 0.9989 0.0300
vn -0.1736 -0.0000 -0.9848
vn -0.7660 -0.0000 -0.6428
vn -1.0000 0.0000 -0.0000
# 79 vertex normals

vt 0.7500 0.0000 1.0000
vt 0.8611 0.0000 1.0000
vt 0.8611 1.0000 1.0000
vt 0.7500 1.0000 1.0000
vt 0.9722 0.0000 1.0000
vt 0.9722 1.0000 1.0000
vt 1.0833 0.0000 1.0000
vt 1.0833 1.0000 1.0000
vt 0.0833 0.0000 1.0000
vt 0.1944 0.0000 1.0000
vt 0.1944 1.0000 1.0000
vt 0.0833 1.0000 1.0000
vt 0.3056 0.0000 1.0000
vt 0.3056 1.0000 1.0000
vt 0.4167 0.0000 1.0000
vt 0.4167 1.0000 1.0000
vt 0.5278 0.0000 1.0000
vt 0.5278 1.0000 1.0000
vt 0.6389 0.0000 1.0000
vt 0.6389 1.0000 1.0000
vt 0.1786 0.8830 -0.2500
vt 0.5000 1.0000 -0.2500
vt 0.5000 0.7500 -0.2500
vt 0.3393 0.6915 -0.2500
vt 0.0076 0.5868 -0.2500
vt 0.2538 0.5434 -0.2500
vt 0.0670 0.2500 -0.2500
vt 0.2835 0.3750 -0.2500
vt 0.3290 0.0302 -0.2500
vt 0.4145 0.2651 -0.2500
vt 0.6710 0.0302 -0.2500
vt 0.5855 0.2651 -0.2500
vt 0.9330 0.2500 -0.2500
vt 0.7165 0.3750 -0.2500
vt 0.9924 0.5868 -0.2500
vt 0.7462 0.5434 -0.2500
vt 0.8214 0.8830 -0.2500
vt 0.6607 0.6915 -0.2500
vt 0.5000 0.5000 -0.2500
vt 0.1786 0.8830 0.2500
vt 0.2590 0.7873 0.2500
vt 0.5000 0.8750 0.2500
vt 0.5000 1.0000 0.2500
vt 0.0076 0.5868 0.2500
vt 0.1307 0.5651 0.2500
vt 0.0670 0.2500 0.2500
vt 0.1752 0.3125 0.2500
vt 0.3290 0.0302 0.2500
vt 0.3717 0.1476 0.2500
vt 0.6710 0.0302 0.2500
vt 0.6283 0.1476 0.2500
vt 0.9330 0.2500 0.2500
vt 0.8248 0.3125 0.2500
vt 0.9924 0.5868 0.2500
vt 0.8693 0.5651 0.2500
vt 0.8214 0.8830 0.2500
vt 0.7410 0.7873 0.2500
vt 0.5000 0.7500 0.2500
vt 0.3393 0.6915 0.2500
vt 0.4614 0.5460 0.2500
vt 0.5000 0.5600 0.2500
vt 0.2538 0.5434 0.2500
vt 0.4409 0.5104 0.2500
vt 0.2835 0.3750 0.2500
vt 0.4480 0.4700 0.2500
vt 0.4145 0.2651 0.2500
vt 0.4795 0.4436 0.2500
vt 0.5855 0.2651 0.2500
vt 0.5205 0.4436 0.2500
vt 0.7165 0.3750 0.2500
vt 0.5520 0.4700 0.2500
vt 0.7462 0.5434 0.2500
vt 0.5591 0.5104 0.2500
vt 0.6607 0.6915 0.2500
vt 0.5386 0.5460 0.2500
vt 0.6071 0.9610 0.2500
vt 0.7143 0.9220 0.2500
vt 0.5000 0.5000 0.2500
# 78 texture coords

g Cylinder001
usemtl wire_135006006
s 8
f 1/1/1 2/2/2 3/3/2 4/4/1 
f 2/2/2 5/5/3 6/6/3 3/3/2 
f 5/5/3 7/7/4 8/8/4 6/6/3 
f 7/9/4 9/10/5 10/11/5 8/12/4 
f 9/10/5 11/13/6 12/14/6 10/11/5 
f 11/13/6 13/15/7 14/16/7 12/14/6 
f 13/15/7 15/17/8 16/18/8 14/16/7 
f 15/17/8 17/19/9 18/20/9 16/18/8 
f 17/19/9 1/1/1 4/4/1 18/20/9 
s 1
f 2/21/10 1/22/10 19/23/10 20/24/10 
f 5/25/10 2/21/10 20/24/10 21/26/10 
f 7/27/10 5/25/10 21/26/10 22/28/10 
f 9/29/10 7/27/10 22/28/10 23/30/10 
f 11/31/10 9/29/10 23/30/10 24/32/10 
f 13/33/10 11/31/10 24/32/10 25/34/10 
f 15/35/10 13/33/10 25/34/10 26/36/10 
f 17/37/10 15/35/10 26/36/10 27/38/10 
f 1/22/10 17/37/10 27/38/10 19/23/10 
f 20/24/10 19/23/10 28/39/10 
f 21/26/10 20/24/10 28/39/10 
f 22/28/10 21/26/10 28/39/10 
f 23/30/10 22/28/10 28/39/10 
f 24/32/10 23/30/10 28/39/10 
f 25/34/10 24/32/10 28/39/10 
f 26/36/10 25/34/10 28/39/10 
f 27/38/10 26/36/10 28/39/10 
f 19/23/10 27/38/10 28/39/10 
s 32769
f 29/40/11 30/41/12 31/42/13 32/43/14 
f 33/44/15 34/45/16 30/41/12 29/40/11 
f 35/46/17 36/47/18 34/45/16 33/44/15 
f 37/48/19 38/49/20 36/47/18 35/46/17 
f 39/50/21 40/51/22 38/49/20 37/48/19 
f 41/52/23 42/53/24 40/51/22 39/50/21 
f 43/54/25 44/55/26 42/53/24 41/52/23 
f 45/56/27 46/57/28 44/55/26 43/54/25 
f 32/43/14 31/42/13 46/57/28 45/56/27 
s 1
f 47/58/29 48/59/30 49/60/30 50/61/29 
f 51/62/31 52/63/31 49/60/30 48/59/30 
f 53/64/32 54/65/32 52/63/31 51/62/31 
f 55/66/33 56/67/33 54/65/32 53/64/32 
f 57/68/34 58/69/34 56/67/33 55/66/33 
f 59/70/35 60/71/35 58/69/34 57/68/34 
f 61/72/36 62/73/36 60/71/35 59/70/35 
f 63/74/37 64/75/37 62/73/36 61/72/36 
f 63/74/37 47/58/29 50/61/29 64/75/37 
s off
f 4/43/38 3/40/38 65/40/38 66/43/38 
f 3/40/38 6/44/38 67/44/38 65/40/38 
f 6/44/38 8/46/38 68/46/38 67/44/38 
f 8/46/38 10/48/38 69/48/38 68/46/38 
f 10/48/38 12/50/38 70/50/38 69/48/38 
f 12/50/38 14/52/38 71/52/38 70/50/38 
f 14/52/38 16/54/38 72/54/38 71/52/38 
f 16/54/38 18/56/38 73/56/38 72/54/38 
f 18/56/38 4/43/38 66/43/38 73/56/38 
f 66/43/39 65/40/39 74/40/39 75/43/39 
f 74/40/39 76/43/39 77/43/39 78/43/39 
f 74/40/39 78/43/39 79/43/39 75/43/39 
f 65/40/40 67/44/40 80/44/40 74/40/40 
f 67/44/41 68/46/41 81/46/41 80/44/41 
f 68/46/42 69/48/42 82/48/42 81/46/42 
f 69/48/43 70/50/43 83/50/43 82/48/43 
f 70/50/44 71/52/44 84/52/44 83/50/44 
f 71/52/45 72/54/45 85/54/45 84/52/45 
f 72/54/46 73/56/46 86/56/46 87/56/46 
f 72/54/46 87/56/46 88/56/46 89/56/46 
f 72/54/46 89/56/46 90/56/46 85/54/46 
f 91/43/47 92/43/47 93/76/47 94/56/47 
f 93/76/48 95/77/48 94/56/48 
f 94/56/47 96/56/47 97/77/47 91/43/47 
f 91/43/48 97/77/48 98/76/48 
f 76/43/10 74/40/10 99/40/10 100/43/10 
f 74/40/10 80/44/10 101/44/10 99/40/10 
f 80/44/10 81/46/10 102/46/10 101/44/10 
f 81/46/10 82/48/10 103/48/10 102/46/10 
f 82/48/10 83/50/10 104/50/10 103/48/10 
f 83/50/10 84/52/10 105/52/10 104/50/10 
f 84/52/10 85/54/10 106/54/10 105/52/10 
f 85/54/10 90/56/10 107/56/10 106/54/10 
f 90/56/10 76/43/10 100/43/10 107/56/10 
f 100/43/49 99/40/49 108/40/49 109/43/49 
f 99/40/50 101/44/50 110/44/50 108/40/50 
f 101/44/41 102/46/41 111/46/41 110/44/41 
f 102/46/42 103/48/42 112/48/42 111/46/42 
f 103/48/51 104/50/51 113/50/51 112/48/51 
f 104/50/44 105/52/44 114/52/44 113/50/44 
f 105/52/45 106/54/45 115/54/45 114/52/45 
f 106/54/52 107/56/52 116/56/52 115/54/52 
f 107/56/47 100/43/47 109/43/47 116/56/47 
f 109/43/38 108/40/38 29/40/38 32/43/38 
f 108/40/38 110/44/38 33/44/38 29/40/38 
f 110/44/38 111/46/38 35/46/38 33/44/38 
f 111/46/38 112/48/38 37/48/38 35/46/38 
f 112/48/38 113/50/38 39/50/38 37/48/38 
f 113/50/38 114/52/38 41/52/38 39/50/38 
f 114/52/38 115/54/38 43/54/38 41/52/38 
f 115/54/38 116/56/38 45/56/38 43/54/38 
f 116/56/38 109/43/38 32/43/38 45/56/38 
s 32769
f 117/59/53 118/58/54 31/42/13 30/41/12 
f 119/62/55 117/59/53 30/41/12 34/45/16 
f 120/64/56 119/62/55 34/45/16 36/47/18 
f 121/66/57 120/64/56 36/47/18 38/49/20 
f 122/68/58 121/66/57 38/49/20 40/51/22 
f 123/70/59 122/68/58 40/51/22 42/53/24 
f 124/72/60 123/70/59 42/53/24 44/55/26 
f 125/74/61 124/72/60 44/55/26 46/57/28 
f 118/58/54 125/74/61 46/57/28 31/42/13 
s off
f 76/43/47 90/56/47 89/56/47 126/77/47 
f 76/43/47 126/77/47 127/76/47 77/43/47 
f 73/56/48 66/43/48 75/43/48 128/76/48 
f 73/56/48 128/76/48 129/77/48 86/56/48 
f 87/56/48 86/56/48 129/77/48 
f 126/77/48 89/56/48 88/56/48 
f 78/43/47 77/43/47 127/76/47 
f 128/76/48 75/43/48 79/43/48 
f 79/43/62 78/43/62 130/43/62 131/43/62 
f 78/43/63 127/76/63 132/76/63 130/43/63 
f 127/76/38 126/77/38 133/77/38 132/76/38 
f 126/77/64 88/56/64 134/56/64 133/77/64 
f 88/56/65 87/56/65 135/56/65 134/56/65 
f 87/56/66 129/77/66 136/77/66 135/56/66 
f 129/77/10 128/76/10 137/76/10 136/77/10 
f 128/76/67 79/43/67 131/43/67 137/76/67 
f 131/43/48 130/43/48 138/43/48 139/43/48 
f 130/43/47 132/76/47 140/76/47 138/43/47 
f 132/76/47 133/77/47 141/77/47 140/76/47 
f 133/77/47 134/56/47 142/56/47 141/77/47 
f 134/56/48 135/56/48 143/56/48 142/56/48 
f 135/56/48 136/77/48 144/77/48 143/56/48 
f 136/77/48 137/76/48 145/76/48 144/77/48 
f 137/76/48 131/43/48 139/43/48 145/76/48 
f 139/43/62 138/43/62 146/43/62 147/43/62 
f 138/43/63 140/76/63 148/76/63 146/43/63 
f 140/76/38 141/77/38 149/77/38 148/76/38 
f 141/77/64 142/56/64 150/56/64 149/77/64 
f 142/56/65 143/56/65 151/56/65 150/56/65 
f 143/56/66 144/77/66 152/77/66 151/56/66 
f 144/77/10 145/76/10 153/76/10 152/77/10 
f 145/76/67 139/43/67 147/43/67 153/76/67 
f 147/43/48 146/43/48 154/43/48 155/43/48 
f 146/43/48 148/76/48 156/76/48 154/43/48 
f 148/76/48 149/77/48 157/77/48 156/76/48 
f 149/77/47 150/56/47 158/56/47 157/77/47 
f 150/56/48 151/56/48 159/56/48 158/56/48 
f 151/56/48 152/77/48 160/77/48 159/56/48 
f 152/77/47 153/76/47 161/76/47 160/77/47 
f 153/76/47 147/43/47 155/43/47 161/76/47 
f 155/43/62 154/43/62 92/43/62 91/43/62 
f 154/43/63 156/76/63 93/76/63 92/43/63 
f 156/76/38 157/77/38 95/77/38 93/76/38 
f 157/77/64 158/56/64 94/56/64 95/77/64 
f 158/56/65 159/56/65 96/56/65 94/56/65 
f 159/56/66 160/77/66 97/77/66 96/56/66 
f 160/77/10 161/76/10 98/76/10 97/77/10 
f 161/76/67 155/43/67 91/43/67 98/76/67 
f 118/58/39 117/59/39 48/59/39 47/58/39 
f 117/59/40 119/62/40 51/62/40 48/59/40 
f 119/62/41 120/64/41 53/64/41 51/62/41 
f 120/64/42 121/66/42 55/66/42 53/64/42 
f 121/66/51 122/68/51 57/68/51 55/66/51 
f 122/68/44 123/70/44 59/70/44 57/68/44 
f 123/70/45 124/72/45 61/72/45 59/70/45 
f 124/72/46 125/74/46 63/74/46 61/72/46 
f 125/74/48 118/58/48 47/58/48 63/74/48 
s 1
f 162/60/68 163/78/38 164/61/69 
f 165/63/70 163/78/38 162/60/68 
f 166/65/71 163/78/38 165/63/70 
f 167/67/72 163/78/38 166/65/71 
f 168/69/73 163/78/38 167/67/72 
f 169/71/74 163/78/38 168/69/73 
f 170/73/75 163/78/38 169/71/74 
f 171/75/76 163/78/38 170/73/75 
f 164/61/69 163/78/38 171/75/76 
s off
f 50/61/49 49/60/49 162/60/49 164/61/49 
f 49/60/50 52/63/50 165/63/50 162/60/50 
f 52/63/77 54/65/77 166/65/77 165/63/77 
f 54/65/78 56/67/78 167/67/78 166/65/78 
f 56/67/79 58/69/79 168/69/79 167/67/79 
f 58/69/44 60/71/44 169/71/44 168/69/44 
f 60/71/45 62/73/45 170/73/45 169/71/45 
f 62/73/46 64/75/46 171/75/46 170/73/46 
f 64/75/48 50/61/48 164/61/48 171/75/48 
# 157 polygons - 24 triangles

